<svg width="25" height="31" viewBox="0 0 25 31" fill="none" xmlns="http://www.w3.org/2000/svg">
<path fill-rule="evenodd" clip-rule="evenodd" d="M25 2.73262L20.0988 0L0 11.2063V28.2639L4.90571 31L25 19.7955V2.73262ZM0.793291 27.8086L4.11242 29.6595V25.1705L0.793291 23.3187V27.8086ZM5.70988 25.1627V29.6534L14.5512 24.7231V20.2324L5.70988 25.1627ZM15.3545 19.785V24.2748L24.1958 19.3454V14.8556L15.3545 19.785ZM0.793291 22.4213L4.11242 24.2722V19.7832L0.793291 17.9323V22.4213ZM5.70988 19.7745V24.2652L9.72801 22.0238V17.5339L5.70988 19.7745ZM10.5322 17.0856V21.5755L19.3735 16.6461V12.1554L10.5322 17.0856ZM0.793291 17.034L4.11242 18.8858V16.6413V14.3968L0.793291 12.5459V17.034ZM5.70988 14.3863V18.8762L14.5512 13.9459V9.45602L5.70988 14.3863ZM20.1777 11.7071V16.1969L24.1958 13.9573V9.46741L20.1777 11.7071ZM15.3545 9.00774V13.4985L24.1958 8.56908V4.07835L15.3545 9.00774ZM1.60381 11.2036L4.90662 13.0441L13.7489 8.11379L10.4461 6.2725L1.60381 11.2036ZM11.2511 5.82334L14.553 7.66463L23.3953 2.73524L20.0934 0.893945L11.2511 5.82334Z" fill="#D10033"/>
</svg>
